<svg width="27" height="21" viewBox="0 0 27 21" fill="none" xmlns="http://www.w3.org/2000/svg">
<path d="M23.5 0H3.5C2.57174 0 1.6815 0.368749 1.02513 1.02513C0.368749 1.6815 0 2.57174 0 3.5V17.5C0 18.4283 0.368749 19.3185 1.02513 19.9749C1.6815 20.6313 2.57174 21 3.5 21H23.5C23.9596 21 24.4148 20.9095 24.8394 20.7336C25.264 20.5577 25.6499 20.2999 25.9749 19.9749C26.2999 19.6499 26.5577 19.264 26.7336 18.8394C26.9095 18.4148 27 17.9596 27 17.5V3.5C27 3.04037 26.9095 2.58525 26.7336 2.16061C26.5577 1.73597 26.2999 1.35013 25.9749 1.02513C25.6499 0.700121 25.264 0.442313 24.8394 0.266422C24.4148 0.0905303 23.9596 0 23.5 0ZM3.5 3H23.5C23.6326 3 23.7598 3.05268 23.8536 3.14645C23.9473 3.24021 24 3.36739 24 3.5V5.5H17.5C17.1022 5.5 16.7206 5.65804 16.4393 5.93934C16.158 6.22064 16 6.60218 16 7C16 7.66304 15.7366 8.29893 15.2678 8.76777C14.7989 9.23661 14.163 9.5 13.5 9.5C12.837 9.5 12.2011 9.23661 11.7322 8.76777C11.2634 8.29893 11 7.66304 11 7C11 6.60218 10.842 6.22064 10.5607 5.93934C10.2794 5.65804 9.89782 5.5 9.5 5.5H3V3.5C3 3.36739 3.05268 3.24021 3.14645 3.14645C3.24021 3.05268 3.36739 3 3.5 3ZM23.5 18H3.5C3.36739 18 3.24021 17.9473 3.14645 17.8536C3.05268 17.7598 3 17.6326 3 17.5V8.5H8.2075C8.5334 9.65259 9.22666 10.6673 10.1819 11.3899C11.1372 12.1125 12.3022 12.5035 13.5 12.5035C14.6978 12.5035 15.8628 12.1125 16.8181 11.3899C17.7733 10.6673 18.4666 9.65259 18.7925 8.5H24V17.5C24 17.6326 23.9473 17.7598 23.8536 17.8536C23.7598 17.9473 23.6326 18 23.5 18Z" fill="white"/>
</svg>
